<svg width="22" height="27" viewBox="0 0 22 27" fill="none" xmlns="http://www.w3.org/2000/svg">
<path d="M5.23494 25.5141C4.72232 25.1731 4.268 24.7517 3.88944 24.2661C3.47302 23.7649 3.08719 23.2391 2.73406 22.6915C1.90538 21.4775 1.2555 20.1506 0.804375 18.7517C0.262437 17.1267 0 15.5691 0 14.0457C0 12.3443 0.368063 10.8591 1.08794 9.61106C1.62157 8.63561 2.40615 7.82045 3.3605 7.24994C4.28537 6.67548 5.34807 6.3611 6.43662 6.33994C6.81769 6.33994 7.228 6.39519 7.6635 6.50081C7.97631 6.58938 8.35737 6.72913 8.82294 6.903C9.41525 7.13131 9.74106 7.27106 9.85156 7.30519C10.1985 7.43194 10.4902 7.48719 10.7193 7.48719C10.8932 7.48719 11.1386 7.43194 11.4172 7.34744C11.5741 7.29219 11.8698 7.19469 12.2931 7.0135C12.7124 6.86075 13.0422 6.72994 13.3047 6.63244C13.7069 6.51381 14.0961 6.40413 14.443 6.34888C14.8543 6.28403 15.2717 6.26686 15.6869 6.29769C16.4065 6.34472 17.1153 6.4972 17.7905 6.75025C18.8947 7.19469 19.7876 7.88856 20.4522 8.87494C20.1713 9.04808 19.9077 9.24779 19.6649 9.47131C19.1365 9.93978 18.6864 10.4897 18.3316 11.1004C17.8679 11.9349 17.6275 12.8749 17.6337 13.8296C17.6507 15.002 17.9514 16.0347 18.5437 16.9276C18.9791 17.5894 19.5451 18.1554 20.2069 18.5908C20.5457 18.8191 20.8374 18.9759 21.1169 19.0816C20.9861 19.4878 20.8463 19.8811 20.6814 20.2711C20.3073 21.1456 19.8539 21.9841 19.3269 22.776C18.8573 23.4577 18.4892 23.9655 18.2097 24.3035C17.7742 24.8194 17.355 25.2135 16.9317 25.4881C16.4661 25.7969 15.9161 25.9618 15.3571 25.9618C14.9785 25.9763 14.6 25.9305 14.2358 25.8261C13.923 25.7205 13.6134 25.6059 13.3087 25.4751C12.992 25.3296 12.6654 25.2066 12.3313 25.1071C11.5056 24.895 10.6398 24.8936 9.81337 25.103C9.47456 25.2005 9.14875 25.3142 8.827 25.454C8.37444 25.6441 8.07381 25.7717 7.89994 25.8261C7.553 25.9277 7.19306 25.9911 6.82906 26.0122C6.266 26.0122 5.74112 25.8513 5.22112 25.5255L5.23494 25.5141ZM12.6612 5.51444C11.9251 5.8825 11.2222 6.03931 10.5243 5.98812C10.4146 5.28531 10.5243 4.56625 10.816 3.77894C11.0643 3.11193 11.4313 2.49534 11.8991 1.95894C12.3931 1.39427 12.9925 0.931431 13.6638 0.596375C14.3788 0.228312 15.0605 0.02925 15.7121 0C15.7966 0.736125 15.7121 1.46006 15.4416 2.2425C15.1912 2.93417 14.8249 3.57819 14.3585 4.147C13.8824 4.71244 13.2982 5.17708 12.6401 5.51362L12.6612 5.51444Z" fill="white"/>
</svg>
